M48
; DRILL file {KiCad 9.0.7} date 2026-01-25T18:13:56-0500
; FORMAT={-:-/ absolute / metric / decimal}
; #@! TF.CreationDate,2026-01-25T18:13:56-05:00
; #@! TF.GenerationSoftware,Kicad,Pcbnew,9.0.7
; #@! TF.FileFunction,Plated,1,2,PTH
FMAT,2
METRIC
; #@! TA.AperFunction,Plated,PTH,ViaDrill
T1C0.300
; #@! TA.AperFunction,Plated,PTH,ComponentDrill
T2C0.800
; #@! TA.AperFunction,Plated,PTH,ComponentDrill
T3C0.900
; #@! TA.AperFunction,Plated,PTH,ComponentDrill
T4C1.000
; #@! TA.AperFunction,Plated,PTH,ComponentDrill
T5C1.200
; #@! TA.AperFunction,Plated,PTH,ComponentDrill
T6C1.500
; #@! TA.AperFunction,Plated,PTH,ComponentDrill
T7C1.600
%
G90
G05
T1
X33.998Y-99.65
X34.8Y-98.25
X34.819Y-79.181
X35.697Y-70.551
X35.75Y-89.55
X35.75Y-108.65
X38.05Y-71.71
X38.05Y-90.76
X38.05Y-109.81
X43.45Y-72.99
X43.45Y-90.76
X43.45Y-92.04
X43.45Y-109.8
X43.45Y-111.09
X43.7Y-88.95
X43.7Y-107.3
X44.949Y-108.05
X47.4Y-81.35
X48.1Y-99.25
X48.124Y-94.126
X55.048Y-99.65
X55.85Y-98.25
X55.869Y-79.181
X56.747Y-70.551
X56.8Y-89.55
X56.8Y-108.65
X59.1Y-71.71
X59.1Y-90.76
X59.1Y-109.81
X64.5Y-72.99
X64.5Y-90.76
X64.5Y-92.04
X64.5Y-109.8
X64.5Y-111.09
X64.75Y-88.95
X64.75Y-107.3
X65.999Y-108.05
X68.45Y-81.35
X69.15Y-99.25
X69.174Y-94.126
X76.098Y-99.65
X76.9Y-98.25
X76.919Y-79.181
X77.797Y-70.551
X77.85Y-89.55
X77.85Y-108.65
X80.15Y-71.71
X80.15Y-90.76
X80.15Y-109.81
X85.55Y-72.99
X85.55Y-90.76
X85.55Y-92.04
X85.55Y-109.8
X85.55Y-111.09
X85.8Y-88.95
X85.8Y-107.3
X87.049Y-108.05
X89.5Y-81.35
X90.2Y-99.25
X90.224Y-94.126
T2
X33.75Y-113.75
X35.75Y-75.6
X35.75Y-94.65
X35.75Y-113.75
X37.75Y-75.6
X37.75Y-94.65
X37.75Y-113.75
X39.75Y-75.6
X39.75Y-94.65
X39.75Y-113.75
X41.75Y-75.6
X41.75Y-94.65
X41.75Y-113.75
X43.75Y-75.6
X43.75Y-94.65
X43.75Y-113.75
X45.75Y-75.6
X45.75Y-94.65
X45.75Y-113.75
X47.75Y-113.75
X49.3Y-63.4
X49.3Y-71.02
X49.3Y-82.45
X49.3Y-90.07
X49.3Y-101.5
X49.3Y-109.12
X54.8Y-113.75
X56.8Y-75.6
X56.8Y-94.65
X56.8Y-113.75
X58.8Y-75.6
X58.8Y-94.65
X58.8Y-113.75
X60.8Y-75.6
X60.8Y-94.65
X60.8Y-113.75
X62.8Y-75.6
X62.8Y-94.65
X62.8Y-113.75
X64.8Y-75.6
X64.8Y-94.65
X64.8Y-113.75
X66.8Y-75.6
X66.8Y-94.65
X66.8Y-113.75
X68.8Y-113.75
X70.35Y-63.4
X70.35Y-71.02
X70.35Y-82.45
X70.35Y-90.07
X70.35Y-101.5
X70.35Y-109.12
X75.85Y-113.75
X77.85Y-75.6
X77.85Y-94.65
X77.85Y-113.75
X79.85Y-75.6
X79.85Y-94.65
X79.85Y-113.75
X81.85Y-75.6
X81.85Y-94.65
X81.85Y-113.75
X83.85Y-75.6
X83.85Y-94.65
X83.85Y-113.75
X85.85Y-75.6
X85.85Y-94.65
X85.85Y-113.75
X87.85Y-75.6
X87.85Y-94.65
X87.85Y-113.75
X89.85Y-113.75
X91.4Y-63.4
X91.4Y-71.02
X91.4Y-82.45
X91.4Y-90.07
X91.4Y-101.5
X91.4Y-109.12
T3
X56.655Y-62.145
X57.925Y-59.605
X59.195Y-62.145
X60.465Y-59.605
X61.735Y-62.145
X63.005Y-59.605
X64.275Y-62.145
X65.545Y-59.605
T4
X33.25Y-64.7
X33.25Y-67.2
X33.25Y-69.7
X47.75Y-64.7
X47.75Y-69.7
T5
X40.75Y-61.3
X40.75Y-80.35
X40.75Y-99.4
X45.75Y-63.4
X45.75Y-82.45
X45.75Y-101.5
X61.8Y-61.3
X61.8Y-80.35
X61.8Y-99.4
X66.8Y-63.4
X66.8Y-82.45
X66.8Y-101.5
X82.85Y-61.3
X82.85Y-80.35
X82.85Y-99.4
X87.85Y-63.4
X87.85Y-82.45
X87.85Y-101.5
T7
X35.75Y-72.35
X35.75Y-91.4
X35.75Y-110.45
X53.33Y-71.545
X56.8Y-72.35
X56.8Y-91.4
X56.8Y-110.45
X68.87Y-71.545
X77.85Y-72.35
X77.85Y-91.4
X77.85Y-110.45
T6
G00X40.1Y-61.6
M15
G01X41.4Y-61.6
M16
G05
G00X40.1Y-72.8
M15
G01X41.4Y-72.8
M16
G05
M30
