M48
; DRILL file {KiCad 9.0.7} date 2026-01-25T18:13:56-0500
; FORMAT={-:-/ absolute / metric / decimal}
; #@! TF.CreationDate,2026-01-25T18:13:56-05:00
; #@! TF.GenerationSoftware,Kicad,Pcbnew,9.0.7
; #@! TF.FileFunction,NonPlated,1,2,NPTH
FMAT,2
METRIC
; #@! TA.AperFunction,NonPlated,NPTH,ComponentDrill
T1C0.500
; #@! TA.AperFunction,NonPlated,NPTH,ComponentDrill
T2C1.900
; #@! TA.AperFunction,NonPlated,NPTH,ComponentDrill
T3C3.250
; #@! TA.AperFunction,NonPlated,NPTH,ComponentDrill
T4C5.050
%
G90
G05
T1
X32.7Y-78.5
X32.7Y-97.55
X34.4Y-77.0
X34.4Y-78.5
X34.4Y-96.05
X34.4Y-97.55
X47.1Y-77.0
X47.1Y-78.5
X47.1Y-96.05
X47.1Y-97.55
X48.8Y-78.5
X48.8Y-97.55
X53.75Y-78.5
X53.75Y-97.55
X55.45Y-77.0
X55.45Y-78.5
X55.45Y-96.05
X55.45Y-97.55
X68.15Y-77.0
X68.15Y-78.5
X68.15Y-96.05
X68.15Y-97.55
X69.85Y-78.5
X69.85Y-97.55
X74.8Y-78.5
X74.8Y-97.55
X76.5Y-77.0
X76.5Y-78.5
X76.5Y-96.05
X76.5Y-97.55
X89.2Y-77.0
X89.2Y-78.5
X89.2Y-96.05
X89.2Y-97.55
X90.9Y-78.5
X90.9Y-97.55
T2
X35.25Y-67.2
X35.25Y-86.25
X35.25Y-105.3
X46.25Y-67.2
X46.25Y-86.25
X46.25Y-105.3
X56.3Y-67.2
X56.3Y-86.25
X56.3Y-105.3
X67.3Y-67.2
X67.3Y-86.25
X67.3Y-105.3
X77.35Y-67.2
X77.35Y-86.25
X77.35Y-105.3
X88.35Y-67.2
X88.35Y-86.25
X88.35Y-105.3
T3
X55.385Y-68.495
X66.815Y-68.495
T4
X40.75Y-67.2
X40.75Y-86.25
X40.75Y-105.3
X61.8Y-67.2
X61.8Y-86.25
X61.8Y-105.3
X82.85Y-67.2
X82.85Y-86.25
X82.85Y-105.3
M30
