0
SECTION
2
HEADER
9
$INSUNITS
70
4
0
ENDSEC
0
SECTION
2
TABLES
0
TABLE
2
LTYPE
0
LTYPE
72
65
70
64
2
CONTINUOUS
3
______
73
0
40
0
0
ENDTAB
0
TABLE
2
LAYER
0
ENDTAB
0
ENDSEC
0
SECTION
2
ENTITIES
0
LINE
8
0
10
39.0674384
20
-94.0637473
11
55.8029687
21
-91.7117218
0
LINE
8
0
10
56.9324099
20
-92.5628168
11
58.4354794
21
-103.257712
0
ARC
8
0
10
58.5345062
20
-103.2437947
40
0.1
50
187.9999981
51
278.0000003
0
LINE
8
0
10
58.5484235
20
-103.3428215
11
78.3537848
21
-100.5593594
0
ARC
8
0
10
78.3398675
20
-100.4603326
40
0.1
50
278.0000003
51
367.9999948
0
LINE
8
0
10
78.4388943
20
-100.4464153
11
77.6954909
21
-95.156825
0
LINE
8
0
10
78.6160025
20
-94.0200878
11
95.2522243
21
-92.8567698
0
ARC
8
0
10
95.2452487
20
-92.7570134
40
0.1
50
274.0000001
51
363.9999773
0
LINE
8
0
10
95.3450051
20
-92.7500378
11
95.0909817
21
-89.1173342
0
LINE
8
0
10
96.0885458
20
-88.0475777
11
109.6653917
21
-88.0475777
0
LINE
8
0
10
110.6653917
20
-89.0475777
11
110.6653917
21
-91.3475777
0
ARC
8
0
10
110.7653917
20
-91.3475777
40
0.1
50
180
51
270
0
LINE
8
0
10
110.7653917
20
-91.4475777
11
116.8653917
21
-91.4475777
0
LINE
8
0
10
117.8653917
20
-112.5975777
11
117.8653917
21
-92.4475777
0
ARC
8
0
10
117.9653917
20
-112.5975777
40
0.1
50
180
51
270
0
LINE
8
0
10
117.9653917
20
-112.6975777
11
136.6889214
21
-112.6975777
0
LINE
8
0
10
136.9477404
20
-112.7316519
11
153.2887234
21
-117.110205
0
LINE
8
0
10
170.2571575
20
-126.7093025
11
153.5237214
21
-117.206565
0
ARC
8
0
10
170.3065392
20
-126.6223459
40
0.1
50
240.408232
51
329.9999999
0
LINE
8
0
10
170.3931417
20
-126.6723459
11
179.8931417
21
-110.2178633
0
ARC
8
0
10
179.8065392
20
-110.1678633
40
0.1
50
329.9999999
51
419.9999884
0
LINE
8
0
10
179.8565392
20
-110.0812608
11
169.8653917
21
-104.3128691
0
LINE
8
0
10
169.3653917
20
-103.4468437
11
169.3653917
21
-46.3975778
0
ARC
8
0
10
169.2653917
20
-46.3975778
40
0.1
50
0
51
90
0
LINE
8
0
10
169.2653917
20
-46.2975778
11
149.8653917
21
-46.2975778
0
LINE
8
0
10
148.8653917
20
-45.2975778
11
148.8653917
21
-40.8975778
0
ARC
8
0
10
148.7653917
20
-40.8975778
40
0.1
50
0
51
90
0
LINE
8
0
10
148.7653917
20
-40.7975778
11
131.8653917
21
-40.7975778
0
LINE
8
0
10
130.8653917
20
-39.7975778
11
130.8653917
21
-38.3475777
0
ARC
8
0
10
130.7653917
20
-38.3475777
40
0.1
50
0
51
90
0
LINE
8
0
10
130.7653917
20
-38.2475777
11
113.8653916
21
-38.2475777
0
LINE
8
0
10
112.8653916
20
-37.2475777
11
112.8653916
21
-34.9475777
0
ARC
8
0
10
112.7653916
20
-34.9475777
40
0.1
50
0
51
90
0
LINE
8
0
10
112.7653916
20
-34.8475777
11
92.7653916
21
-34.8475777
0
ARC
8
0
10
92.7653916
20
-34.9475777
40
0.1
50
90
51
180
0
LINE
8
0
10
92.6653916
20
-54.4297803
11
92.6653916
21
-34.9475777
0
LINE
8
0
10
91.6479119
20
-39.8791431
11
92.6653916
21
-54.4297803
0
ARC
8
0
10
91.5481555
20
-39.8861187
40
0.1
50
4.0000001
51
93.9999731
0
LINE
8
0
10
91.5411799
20
-39.7863623
11
71.5898989
21
-41.1814918
0
ARC
8
0
10
71.5968745
20
-41.2812482
40
0.1
50
93.9999731
51
184.0000001
0
LINE
8
0
10
71.4971181
20
-41.2882238
11
72.8561278
21
-60.7229674
0
LINE
8
0
10
72.8561278
20
-60.7229674
11
71.06272
21
-47.9622076
0
ARC
8
0
10
70.9636932
20
-47.9761249
40
0.1
50
7.9999999
51
97.9999869
0
LINE
8
0
10
70.9496359
20
-47.8771179
11
51.1444146
21
-50.6605602
0
ARC
8
0
10
51.1583319
20
-50.759587
40
0.1
50
97.9999948
51
187.9999999
0
LINE
8
0
10
51.0593051
20
-50.7735043
11
53.9819402
21
-71.5691337
0
LINE
8
0
10
53.1308452
20
-72.6985749
11
36.3953149
21
-75.0506004
0
ARC
8
0
10
36.4092322
20
-75.1496272
40
0.1
50
98.0000003
51
187.9999915
0
LINE
8
0
10
36.3102054
20
-75.1635445
11
38.9544943
21
-93.9786378
0
ARC
8
0
10
39.0535211
20
-93.9647205
40
0.1
50
187.9999948
51
278.0000003
0
ARC
8
0
10
55.9421418
20
-92.7019899
40
1
50
7.9999997
51
97.9999997
0
ARC
8
0
10
78.685759
20
-95.0176519
40
1
50
94.0000013
51
187.9999997
0
ARC
8
0
10
96.0885458
20
-89.0475777
40
1
50
90
51
184.0000013
0
ARC
8
0
10
109.6653917
20
-89.0475777
40
1
50
0
51
90
0
ARC
8
0
10
116.8653917
20
-92.4475777
40
1
50
0
51
90
0
ARC
8
0
10
136.6889214
20
-113.6975777
40
1
50
75.0000021
51
90
0
ARC
8
0
10
153.0299044
20
-118.0761308
40
1
50
60.4082263
51
75.0000021
0
ARC
8
0
10
170.3653917
20
-103.4468437
40
1
50
180
51
239.9999999
0
ARC
8
0
10
149.8653917
20
-45.2975778
40
1
50
180
51
270
0
ARC
8
0
10
131.8653917
20
-39.7975778
40
1
50
180
51
270
0
ARC
8
0
10
113.8653916
20
-37.2475777
40
1
50
180
51
270
0
ARC
8
0
10
52.9916721
20
-71.7083068
40
1
50
277.9999997
51
7.9999997
0
ENDSEC
0
EOF